# xmcd CD database file
# Copyright (C) 1997 Ti Kan
# 
# Track frame offsets:
#     150
#     20810
#     41137
#     66207
#     92990
#     108797
#     134685
#     158917
#     173560
# 
# Disc length: 2481 seconds
# 
# Revision: 1
# Processed by: cddbd v1.4b41PL1 Copyright (c) Steve Scherf et al.
# Submitted via: DiscPlay 4.0.3
# 
DISCID=7a09af09
DTITLE=Santana - 3
DYEAR=1900
DGENRE=
TTITLE0=Batuka
TTITLE1=No One To Depend On
TTITLE2=Taboo
TTITLE3=Toussaint L'Overture
TTITLE4=Everybody's Everythnig
TTITLE5=Guajira
TTITLE6=Jungle Strut
TTITLE7=Everything's Coming Our Way
TTITLE8=Para Los Rumberos
EXTD=
EXTT0=
EXTT1=
EXTT2=
EXTT3=
EXTT4=
EXTT5=
EXTT6=
EXTT7=
EXTT8=
PLAYORDER=
